<?xml version="1.0" encoding="UTF-8" standalone="no"?>
<svg
   xmlns:dc="http://purl.org/dc/elements/1.1/"
   xmlns:cc="http://creativecommons.org/ns#"
   xmlns:rdf="http://www.w3.org/1999/02/22-rdf-syntax-ns#"
   xmlns:svg="http://www.w3.org/2000/svg"
   xmlns="http://www.w3.org/2000/svg"
   xmlns:sodipodi="http://sodipodi.sourceforge.net/DTD/sodipodi-0.dtd"
   xmlns:inkscape="http://www.inkscape.org/namespaces/inkscape"
   width="1105"
   height="1293.5"
   version="1.1"
   id="svg2"
   inkscape:version="0.91 r13725"
   sodipodi:docname="RobotHouseMap.svg">
  <metadata
     id="metadata17">
    <rdf:RDF>
      <cc:Work
         rdf:about="">
        <dc:format>image/svg+xml</dc:format>
        <dc:type
           rdf:resource="http://purl.org/dc/dcmitype/StillImage" />
        <dc:title></dc:title>
      </cc:Work>
    </rdf:RDF>
  </metadata>
  <defs
     id="defs15" />
  <sodipodi:namedview
     pagecolor="#ffffff"
     bordercolor="#666666"
     borderopacity="1"
     objecttolerance="10"
     gridtolerance="10"
     guidetolerance="10"
     inkscape:pageopacity="0"
     inkscape:pageshadow="2"
     inkscape:window-width="640"
     inkscape:window-height="480"
     id="namedview13"
     showgrid="false"
     fit-margin-top="0"
     fit-margin-left="0"
     fit-margin-right="0"
     fit-margin-bottom="0"
     units="px"
     inkscape:zoom="0.52608725"
     inkscape:cx="345.13116"
     inkscape:cy="618.63369"
     inkscape:current-layer="svg2"
     inkscape:document-units="px" />
  <path
     id="path3369"
     style="fill:#000000"
     d="m 10.0542,-3.0878022e-5 10.0542,0 0,40.579299878022 0,40.5788 43.209,0 43.2088,0 0,7.4216 0,7.4216 -43.2088,0 -43.209,0 0,132.510101 0,132.5101 84.9816,0 84.9816,0 0,-8.7382 0,-8.7384 7.4208,0 7.421,0 0,2.5137 0,2.5138 24.537,0 24.5369,0 0,7.5412 0,7.5413 19.0311,0 19.0311,0 0,55.9009 0,55.9008 -6.8227,0 -6.8225,0 0,-43.6913 0,-43.6911 -31.0001,0 -31.0004,0 0,-5.9851 0,-5.9851 -98.1476,0 -98.1478,0 0,137.4176 0,137.418 129.1482,0 129.1477,0 0,-48.9579 0,-48.9583 6.8225,0 6.8227,0 0,48.9583 0,48.9579 40.2164,0 40.2167,0 0,7.5412 0,7.5413 -5.027,0 -5.0272,0 0,8.0199 0,8.0202 -6.7028,0 -6.7028,0 0,-1.5562 0,-1.5561 -71.8154,0 -71.8151,0 0,-3.4714 0,-3.4713 -92.6419,0 -92.642,0 0,138.4952 0,138.4952 164.4573,0 164.4571,0 0,-93.4873 0,-93.4872 6.7028,0 6.7028,0 0,93.4872 0,93.4873 5.0272,0 5.027,0 0,18.0752 0,18.0749 -158.4726,0 -158.4726,0 0,144.24093 0,144.241 49.0739,0 49.074,0 0,9.9353 0,9.9351 -59.0085,0 -59.0084,0 0,-162.1962 0,-162.19623 -17.8342,0 -17.8342,0 0,-484.5538 0,-484.553800878022 10.0542,0 z M 188.755,81.158069 l 1.3166,0 0,-40.5788 0,-40.579299878022 457.4641,0 457.4645,0 0,435.475900878022 0,435.4759 -48.8346,0 -48.8346,0 0,-9.935 0,-9.9354 31.0004,0 31.0004,0 0,-100.5496 0,-100.5498 7.7797,0 7.78,0 0,-138.9741 0,-138.9738 -147.4611,0 -147.4608,0 0,101.2678 0,101.2678 -7.5407,0 -7.5404,0 0,-96.7193 0,-96.7192 -7.421,0 -7.421,0 0,-12.0898 0,-12.0899 162.4225,0 162.4225,0 0,-168.4206 0,-168.420901 -439.9889,0 -439.9892,0 0,119.462701 0,119.4627 -7.421,0 -7.4208,0 0,-81.5171 0,-81.517001 -1.3166,0 -1.3168,0 0,-7.4216 0,-7.4216 1.3168,0 z m 239.8635,1192.471531 62.8385,0 0,-144.241 0,-144.24093 -19.51,0 -19.5098,0 0,-18.0749 0,-18.0752 5.027,0 5.0272,0 0,-93.4873 0,-93.4872 7.5404,0 7.5407,0 0,93.4872 0,93.4873 141.237,0 141.237,0 0,-135.0239 0,-135.0238 -141.237,0 -141.237,0 0,4.0699 0,4.0699 -7.5407,0 -7.5404,0 0,-10.5339 0,-10.5337 -5.0272,0 -5.027,0 0,-7.5413 0,-7.5412 178.2219,0 178.222,0 0,14.0053 0,14.005 -16.9963,0 -16.9963,0 0,86.0659 0,86.0656 37.4636,0 37.4636,0 0,9.9354 0,9.935 -34.9501,0 -34.9501,0 0,49.0779 0,49.0779 -134.1753,0 -134.1749,0 0,162.19623 0,162.1962 -72.8929,0 -72.8923,0 0,-9.9351 0,-9.9353 62.8384,0 z"
     inkscape:connector-curvature="0" />
  <path
     inkscape:connector-curvature="0"
     style="fill:#000000"
     d="m 578.697,413.94997 92.7274,0 2.5756,2.5784 0,159.8436 -2.5756,2.5781 -164.8485,0 -2.5758,-2.5781 0,-159.8436 2.5758,-2.5784 5.1514,0 2.5759,2.5784 0,2.5781 64.3938,0 0,2.5781 -64.3938,0 0,12.8905 64.3938,0 0,2.5781 -64.3938,0 0,12.8907 64.3938,0 0,2.5781 -64.3938,0 0,12.8905 64.3938,0 0,2.5781 -64.3938,0 0,12.8908 64.3938,0 0,2.5781 -64.3938,0 0,12.8905 64.3938,0 0,2.5781 -64.3938,0 0,12.8908 64.3938,0 0,2.5781 -64.3938,0 0,12.8905 64.3938,0 0,2.5781 -64.3938,0 0,38.6721 64.3938,0 0,-38.6721 2.5758,0 0,38.6721 15.4545,0 0,-38.6721 2.5758,0 0,38.6721 64.3938,0 0,-38.6721 -64.3938,0 0,-2.5781 64.3938,0 0,-12.8905 -64.3938,0 0,-2.5781 64.3938,0 0,-12.8908 -64.3938,0 0,-2.5781 64.3938,0 0,-12.8905 -64.3938,0 0,-2.5781 64.3938,0 0,-12.8908 -64.3938,0 0,-2.5781 64.3938,0 0,-12.8905 -64.3938,0 0,-2.5781 64.3938,0 0,-12.8907 -64.3938,0 0,-2.5781 64.3938,0 0,-12.8905 -64.3938,0 0,108.281 -20.6061,0 z"
     id="Stairs" />
</svg>
