<?xml version="1.0" encoding="UTF-8" standalone="no"?>
<svg
   xmlns:dc="http://purl.org/dc/elements/1.1/"
   xmlns:cc="http://creativecommons.org/ns#"
   xmlns:rdf="http://www.w3.org/1999/02/22-rdf-syntax-ns#"
   xmlns:svg="http://www.w3.org/2000/svg"
   xmlns="http://www.w3.org/2000/svg"
   xmlns:sodipodi="http://sodipodi.sourceforge.net/DTD/sodipodi-0.dtd"
   xmlns:inkscape="http://www.inkscape.org/namespaces/inkscape"
   width="13"
   height="13"
   version="1.1"
   id="svg6"
   sodipodi:docname="coffee.svg"
   inkscape:version="0.92.4 5da689c313, 2019-01-14">
  <metadata
     id="metadata12">
    <rdf:RDF>
      <cc:Work
         rdf:about="">
        <dc:format>image/svg+xml</dc:format>
        <dc:type
           rdf:resource="http://purl.org/dc/dcmitype/StillImage" />
        <dc:title></dc:title>
      </cc:Work>
    </rdf:RDF>
  </metadata>
  <defs
     id="defs10" />
  <sodipodi:namedview
     pagecolor="#ffffff"
     bordercolor="#666666"
     borderopacity="1"
     objecttolerance="10"
     gridtolerance="10"
     guidetolerance="10"
     inkscape:pageopacity="0"
     inkscape:pageshadow="2"
     inkscape:window-width="770"
     inkscape:window-height="468"
     id="namedview8"
     showgrid="false"
     fit-margin-top="0"
     fit-margin-left="0"
     fit-margin-right="0"
     fit-margin-bottom="0"
     inkscape:zoom="18.153846"
     inkscape:cx="3.5529661"
     inkscape:cy="13"
     inkscape:window-x="1150"
     inkscape:window-y="0"
     inkscape:window-maximized="0"
     inkscape:current-layer="svg6" />
  <path
     d="m 7.8065353,4.628204 c 0.7145097,0.702508 2.4516067,2.597642 2.4516067,4.420916 0,2.459718 -1.6837834,3.706957 -5.0042991,3.706957 -3.3205957,0 -5.0042984,-1.247239 -5.0042984,-3.706957 0,-1.823274 1.7370159,-3.718408 2.451606,-4.420916 H 2.34787 C 1.5343614,5.454831 0,7.252056 0,9.04912 0,10.851447 0.9113834,13 5.2538429,13 c 4.342299,0 5.2538431,-2.148553 5.2538431,-3.95088 0,-1.797064 -1.5343617,-3.594289 -2.3479506,-4.420916 z M 7.0533252,2.590739 7.5133927,2.149971 V 1.8433567 L 8.8843622,0.5036943 c 0.1678077,-0.1678981 0.3910976,-0.259771 0.6298023,-0.259771 0.4845565,0 0.8788655,0.3852272 0.8788655,0.8588729 0,0.067315 0.0558,0.1219214 0.124772,0.1219214 0.06889,0 0.124772,-0.0546 0.124772,-0.1219214 C 10.642574,0.4947552 10.13634,0 9.5141645,0 9.2076939,0 8.9209745,0.1180771 8.7068385,0.3322676 L 7.3369932,1.6709086 H 5.9602433 V 0.990761 H 4.5473622 V 1.6709086 H 2.7853758 V 2.149971 l 0.4600675,0.440768 z m -4.923365,0 H 2.4876567 C 2.2666155,2.361803 1.9186342,2.088772 1.4307057,1.9611243 v -0.046305 h 1.104965 V 1.670896 H 1.1812415 v 0.478666 l 0.098678,0.02062 c 0.3599447,0.0754 0.6425691,0.246752 0.8500411,0.420531 z M 8.8432531,2.051976 V 1.6709086 H 8.0429923 L 7.7932072,1.9148319 h 0.800501 v 0.046305 L 7.8109516,2.590751 H 8.1686478 L 8.8432531,2.051988 Z M 2.34787,4.376828 H 8.1686478 V 2.834588 H 2.34787 Z M 9.5165732,2.194456 H 9.3918822 V 2.834588 H 8.4183537 v 1.54224 H 9.4532236 L 12.777995,8.834856 13,8.733722 C 12.830666,8.064482 11.294056,2.194456 9.5165732,2.194456"
     style="fill:#000000;fill-opacity:1;fill-rule:nonzero;stroke:none"
     id="path2"
     inkscape:connector-curvature="0" />
  <path
     d="m 7.8065353,4.628204 c 0.7145097,0.702508 2.4516067,2.597642 2.4516067,4.420916 0,2.459718 -1.6837834,3.706957 -5.0042991,3.706957 -3.3205957,0 -5.0042984,-1.247239 -5.0042984,-3.706957 0,-1.823274 1.7370159,-3.718408 2.451606,-4.420916 z"
     style="fill:#ffffff;fill-opacity:1;fill-rule:nonzero;stroke:none"
     id="path4"
     inkscape:connector-curvature="0" />
</svg>
