<?xml version="1.0" encoding="UTF-8" standalone="no"?>
<svg
   xmlns="http://www.w3.org/2000/svg"
   width="13"
   height="13"
   version="1.1">
  <path
     d="m 1.3065353,11.128204 c 0.7145097,0.702508 2.4516067,2.597642 2.4516067,4.420916 0,2.459718 -1.6837834,3.706957 -5.0042991,3.706957 -3.3205957,0 -5.0042984,-1.247239 -5.0042984,-3.706957 0,-1.823274 1.7370159,-3.718408 2.451606,-4.420916 l -0.3532805,0 C -4.9656386,11.954831 -6.5,13.752056 -6.5,15.54912 c 0,1.802327 0.9113834,3.95088 5.2538429,3.95088 4.342299,0 5.2538431,-2.148553 5.2538431,-3.95088 0,-1.797064 -1.5343617,-3.594289 -2.3479506,-4.420916 l -0.3532001,0 z M 0.5533252,9.090739 1.0133927,8.649971 l 0,-0.3066143 1.3709695,-1.3396624 c 0.1678077,-0.1678981 0.3910976,-0.259771 0.6298023,-0.259771 0.4845565,0 0.8788655,0.3852272 0.8788655,0.8588729 0,0.067315 0.0558,0.1219214 0.124772,0.1219214 0.06889,0 0.124772,-0.0546 0.124772,-0.1219214 C 4.142574,6.9947552 3.63634,6.5 3.0141645,6.5 c -0.3064706,0 -0.59319,0.1180771 -0.807326,0.3322676 l -1.3698453,1.338641 -1.3767499,0 0,-0.6801476 -1.4128811,0 0,0.6801476 -1.7619864,0 0,0.4790624 0.4600675,0.440768 3.8078819,0 z m -4.923365,0 0.3576965,0 C -4.2333845,8.861803 -4.5813658,8.588772 -5.0692943,8.4611243 l 0,-0.046305 1.104965,0 0,-0.2439233 -1.3544292,0 0,0.478666 0.098678,0.02062 c 0.3599447,0.0754 0.6425691,0.246752 0.8500411,0.420531 z m 6.7132929,-0.538763 0,-0.3810674 -0.8002608,0 -0.2497851,0.2439233 0.800501,0 0,0.046305 -0.7827566,0.6296141 0.3576962,0 0.6746053,-0.538763 z m -6.4953831,2.324852 5.8207778,0 0,-1.54224 -5.8207778,0 0,1.54224 z m 7.1687032,-2.182372 -0.124691,0 0,0.640132 -0.9735285,0 0,1.54224 1.0348699,0 L 6.277995,15.334856 6.5,15.233722 C 6.330666,14.564482 4.794056,8.694456 3.0165732,8.694456"
     style="fill:#000000;fill-opacity:1;fill-rule:nonzero;stroke:none" />
  <path
     d="m 1.3065353,11.128204 c 0.7145097,0.702508 2.4516067,2.597642 2.4516067,4.420916 0,2.459718 -1.6837834,3.706957 -5.0042991,3.706957 -3.3205957,0 -5.0042984,-1.247239 -5.0042984,-3.706957 0,-1.823274 1.7370159,-3.718408 2.451606,-4.420916 z"
     style="fill:#ffffff;fill-opacity:1;fill-rule:nonzero;stroke:none" />
</svg>
