<?xml version="1.0" encoding="UTF-8" standalone="no"?>
<svg
   xmlns:dc="http://purl.org/dc/elements/1.1/"
   xmlns:cc="http://creativecommons.org/ns#"
   xmlns:rdf="http://www.w3.org/1999/02/22-rdf-syntax-ns#"
   xmlns:svg="http://www.w3.org/2000/svg"
   xmlns="http://www.w3.org/2000/svg"
   xmlns:sodipodi="http://sodipodi.sourceforge.net/DTD/sodipodi-0.dtd"
   xmlns:inkscape="http://www.inkscape.org/namespaces/inkscape"
   width="20.999502"
   height="21.000303"
   version="1.1"
   id="svg28"
   sodipodi:docname="computer.svg"
   inkscape:version="0.92.4 5da689c313, 2019-01-14">
  <metadata
     id="metadata34">
    <rdf:RDF>
      <cc:Work
         rdf:about="">
        <dc:format>image/svg+xml</dc:format>
        <dc:type
           rdf:resource="http://purl.org/dc/dcmitype/StillImage" />
        <dc:title></dc:title>
      </cc:Work>
    </rdf:RDF>
  </metadata>
  <defs
     id="defs32" />
  <sodipodi:namedview
     pagecolor="#ffffff"
     bordercolor="#666666"
     borderopacity="1"
     objecttolerance="10"
     gridtolerance="10"
     guidetolerance="10"
     inkscape:pageopacity="0"
     inkscape:pageshadow="2"
     inkscape:window-width="1075"
     inkscape:window-height="1200"
     id="namedview30"
     showgrid="false"
     fit-margin-top="0"
     fit-margin-left="0"
     fit-margin-right="0"
     fit-margin-bottom="0"
     inkscape:zoom="11.238095"
     inkscape:cx="5.7394065"
     inkscape:cy="21.000302"
     inkscape:window-x="60"
     inkscape:window-y="0"
     inkscape:window-maximized="0"
     inkscape:current-layer="svg28" />
  <rect
     style="fill:#ffffff;fill-opacity:1;stroke:#000000;stroke-width:0.86953479;stroke-linejoin:round;stroke-miterlimit:4;stroke-dasharray:none;stroke-opacity:1"
     width="20.129967"
     height="5.8697801"
     x="0.4347674"
     y="14.695755"
     ry="0.64427888"
     rx="0.6026172"
     id="rect2" />
  <path
     style="fill:#000000;fill-opacity:1;stroke:none"
     d="m 2.4839595,16.35315 a 0.36646136,0.36567673 0 0 1 -0.7329227,0 0.36646136,0.36567673 0 1 1 0.7329227,0 z"
     id="path4"
     inkscape:connector-curvature="0" />
  <path
     style="fill:#000000;fill-opacity:1;stroke:none"
     d="m 2.4968395,17.63063 a 0.36646136,0.36567673 0 0 1 -0.7329227,0 0.36646136,0.36567673 0 1 1 0.7329227,0 z"
     id="path6"
     inkscape:connector-curvature="0" />
  <path
     style="fill:#000000;fill-opacity:1;stroke:none"
     d="m 2.4903995,18.90812 a 0.36646136,0.36567673 0 0 1 -0.7329227,0 0.36646136,0.36567673 0 1 1 0.7329227,0 z"
     id="path8"
     inkscape:connector-curvature="0" />
  <path
     style="fill:#000000;fill-opacity:1;stroke:none"
     d="m 3.8180795,16.35315 a 0.36646136,0.36567673 0 0 1 -0.7329227,0 0.36646136,0.36567673 0 1 1 0.7329227,0 z"
     id="path10"
     inkscape:connector-curvature="0" />
  <path
     style="fill:#000000;fill-opacity:1;stroke:none"
     d="m 3.8309595,17.63063 a 0.36646136,0.36567673 0 0 1 -0.7329227,0 0.36646136,0.36567673 0 1 1 0.7329227,0 z"
     id="path12"
     inkscape:connector-curvature="0" />
  <path
     style="fill:#000000;fill-opacity:1;stroke:none"
     d="m 3.8245195,18.90812 a 0.36646136,0.36567673 0 0 1 -0.7329227,0 0.36646136,0.36567673 0 1 1 0.7329227,0 z"
     id="path14"
     inkscape:connector-curvature="0" />
  <path
     style="fill:#000000;fill-opacity:1;stroke:none"
     d="m 5.1522095,16.35315 a 0.36646136,0.36567673 0 0 1 -0.7329227,0 0.36646136,0.36567673 0 1 1 0.7329227,0 z"
     id="path16"
     inkscape:connector-curvature="0" />
  <path
     style="fill:#000000;fill-opacity:1;stroke:none"
     d="m 5.1650895,17.63063 a 0.36646136,0.36567673 0 0 1 -0.7329227,0 0.36646136,0.36567673 0 1 1 0.7329227,0 z"
     id="path18"
     inkscape:connector-curvature="0" />
  <path
     style="fill:#000000;fill-opacity:1;stroke:none"
     d="m 5.1586495,18.90812 a 0.36646136,0.36567673 0 0 1 -0.7329227,0 0.36646136,0.36567673 0 1 1 0.7329227,0 z"
     id="path20"
     inkscape:connector-curvature="0" />
  <rect
     style="fill:#000000;fill-opacity:1;stroke:none"
     width="5.5361109"
     height="0.79039115"
     x="12.681762"
     y="16.672501"
     ry="0.17265876"
     rx="0.20877488"
     id="rect22" />
  <rect
     style="fill:#ffffff;fill-opacity:1;stroke:#000000;stroke-width:1.03445506;stroke-linejoin:round;stroke-miterlimit:4;stroke-dasharray:none;stroke-opacity:1"
     width="13.296132"
     height="12.577344"
     x="3.8516834"
     y="0.51722753"
     ry="0.4355725"
     rx="0.39803731"
     id="rect24" />
  <rect
     style="fill:#000000;fill-opacity:1;stroke:#000000;stroke-width:0.71453601;stroke-linejoin:round;stroke-miterlimit:4;stroke-dasharray:none;stroke-opacity:1"
     width="9.1841249"
     height="8.6876316"
     x="5.9076824"
     y="2.4620976"
     ry="0.30086586"
     rx="0.27493894"
     id="rect26" />
</svg>
