<?xml version="1.0" encoding="UTF-8" standalone="no"?>
<svg
   xmlns:dc="http://purl.org/dc/elements/1.1/"
   xmlns:cc="http://creativecommons.org/ns#"
   xmlns:rdf="http://www.w3.org/1999/02/22-rdf-syntax-ns#"
   xmlns:svg="http://www.w3.org/2000/svg"
   xmlns="http://www.w3.org/2000/svg"
   xmlns:sodipodi="http://sodipodi.sourceforge.net/DTD/sodipodi-0.dtd"
   xmlns:inkscape="http://www.inkscape.org/namespaces/inkscape"
   width="30"
   height="21.000002"
   version="1.1"
   id="svg12"
   sodipodi:docname="cooker.svg"
   inkscape:version="0.92.4 5da689c313, 2019-01-14">
  <metadata
     id="metadata18">
    <rdf:RDF>
      <cc:Work
         rdf:about="">
        <dc:format>image/svg+xml</dc:format>
        <dc:type
           rdf:resource="http://purl.org/dc/dcmitype/StillImage" />
        <dc:title></dc:title>
      </cc:Work>
    </rdf:RDF>
  </metadata>
  <defs
     id="defs16" />
  <sodipodi:namedview
     pagecolor="#ffffff"
     bordercolor="#666666"
     borderopacity="1"
     objecttolerance="10"
     gridtolerance="10"
     guidetolerance="10"
     inkscape:pageopacity="0"
     inkscape:pageshadow="2"
     inkscape:window-width="728"
     inkscape:window-height="478"
     id="namedview14"
     showgrid="false"
     fit-margin-top="0"
     fit-margin-left="0"
     fit-margin-right="0"
     fit-margin-bottom="0"
     inkscape:zoom="10.866667"
     inkscape:cx="14.217791"
     inkscape:cy="21.000002"
     inkscape:window-x="1197"
     inkscape:window-y="0"
     inkscape:window-maximized="0"
     inkscape:current-layer="svg12" />
  <rect
     style="fill:#ffffff;stroke:#000000;stroke-width:0.86030328;stroke-linecap:butt;stroke-linejoin:miter;stroke-miterlimit:4;stroke-dasharray:none;stroke-opacity:1"
     width="29.139696"
     height="20.139698"
     x="0.43015164"
     y="0.43015164"
     id="rect2" />
  <path
     type="arc"
     style="fill:none;stroke:#000000;stroke-width:0.89188462;stroke-linecap:butt;stroke-miterlimit:4;stroke-dasharray:none;stroke-opacity:1"
     cx="142.85715"
     cy="423.79074"
     rx="34.285713"
     ry="34.285713"
     d="m 9.9987925,6.5781747 c 0,1.890282 -1.5320442,3.4226573 -3.4219155,3.4226573 -1.8898723,0 -3.4219163,-1.5323753 -3.4219163,-3.4226573 0,-1.890282 1.532044,-3.422657 3.4219163,-3.422657 1.8898713,0 3.4219155,1.532375 3.4219155,3.422657 z"
     id="path4"
     inkscape:connector-curvature="0" />
  <path
     type="arc"
     style="fill:#ffffff;stroke:#000000;stroke-width:0.89188462;stroke-linecap:butt;stroke-miterlimit:4;stroke-dasharray:none;stroke-opacity:1"
     cx="147.14285"
     cy="518.07648"
     rx="27.142857"
     ry="27.142857"
     d="m 9.3571811,15.420047 c 0,1.496472 -1.212868,2.709603 -2.709017,2.709603 -1.4961481,0 -2.7090164,-1.213131 -2.7090164,-2.709603 0,-1.496474 1.2128683,-2.709605 2.7090164,-2.709605 1.496149,0 2.709017,1.213131 2.709017,2.709605 z"
     id="path6"
     inkscape:connector-curvature="0" />
  <path
     type="arc"
     style="fill:#ffffff;stroke:#000000;stroke-width:0.89188462;stroke-linecap:butt;stroke-miterlimit:4;stroke-dasharray:none;stroke-opacity:1"
     cx="142.85715"
     cy="423.79074"
     rx="34.285713"
     ry="34.285713"
     d="m 20.27087,14.635678 c 0,-1.890282 1.532044,-3.422658 3.421915,-3.422658 1.889872,0 3.421917,1.532376 3.421917,3.422658 0,1.890282 -1.532045,3.422657 -3.421917,3.422657 -1.889871,0 -3.421915,-1.532375 -3.421915,-3.422657 z"
     id="path8"
     inkscape:connector-curvature="0" />
  <path
     type="arc"
     style="fill:#ffffff;stroke:#000000;stroke-width:0.89188462;stroke-linecap:butt;stroke-miterlimit:4;stroke-dasharray:none;stroke-opacity:1"
     cx="147.14285"
     cy="518.07648"
     rx="27.142857"
     ry="27.142857"
     d="m 20.91248,5.7938157 c 0,-1.496472 1.212868,-2.709603 2.709017,-2.709603 1.496148,0 2.709016,1.213131 2.709016,2.709603 0,1.496474 -1.212868,2.709605 -2.709016,2.709605 -1.496149,0 -2.709017,-1.213131 -2.709017,-2.709605 z"
     id="path10"
     inkscape:connector-curvature="0" />
</svg>
