<?xml version="1.0" encoding="UTF-8" standalone="no"?>
<svg
   xmlns="http://www.w3.org/2000/svg"
   width="30"
   height="21"
   version="1.1">
  <rect
     style="fill:#ffffff;stroke:#000000;stroke-width:0.86030328;stroke-linecap:butt;stroke-linejoin:miter;stroke-miterlimit:4;stroke-dasharray:none;stroke-opacity:1"
     width="29.139696"
     height="20.139698"
     x="-14.569848"
     y="10.930152" />
  <path
     type="arc"
     style="fill:none;stroke:#000000;stroke-width:0.89188462;stroke-linecap:butt;stroke-miterlimit:4;stroke-dasharray:none;stroke-opacity:1"
     cx="142.85715"
     cy="423.79074"
     rx="34.285713"
     ry="34.285713"
     d="m -5.0012072,17.078175 c 0,1.890282 -1.5320442,3.422657 -3.4219155,3.422657 -1.8898723,0 -3.4219163,-1.532375 -3.4219163,-3.422657 0,-1.890282 1.532044,-3.422657 3.4219163,-3.422657 1.8898713,0 3.4219155,1.532375 3.4219155,3.422657 z" />
  <path
     type="arc"
     style="fill:#ffffff;stroke:#000000;stroke-width:0.89188462;stroke-linecap:butt;stroke-miterlimit:4;stroke-dasharray:none;stroke-opacity:1"
     cx="147.14285"
     cy="518.07648"
     rx="27.142857"
     ry="27.142857"
     d="m -5.6428186,25.920047 c 0,1.496472 -1.212868,2.709603 -2.709017,2.709603 -1.4961481,0 -2.7090164,-1.213131 -2.7090164,-2.709603 0,-1.496474 1.2128683,-2.709605 2.7090164,-2.709605 1.496149,0 2.709017,1.213131 2.709017,2.709605 z" />
  <path
     type="arc"
     style="fill:#ffffff;stroke:#000000;stroke-width:0.89188462;stroke-linecap:butt;stroke-miterlimit:4;stroke-dasharray:none;stroke-opacity:1"
     cx="142.85715"
     cy="423.79074"
     rx="34.285713"
     ry="34.285713"
     d="m 5.27087,25.135678 c 0,-1.890282 1.532044,-3.422658 3.421915,-3.422658 1.889872,0 3.421917,1.532376 3.421917,3.422658 0,1.890282 -1.532045,3.422657 -3.421917,3.422657 -1.889871,0 -3.421915,-1.532375 -3.421915,-3.422657 z" />
  <path
     type="arc"
     style="fill:#ffffff;stroke:#000000;stroke-width:0.89188462;stroke-linecap:butt;stroke-miterlimit:4;stroke-dasharray:none;stroke-opacity:1"
     cx="147.14285"
     cy="518.07648"
     rx="27.142857"
     ry="27.142857"
     d="m 5.91248,16.293816 c 0,-1.496472 1.212868,-2.709603 2.709017,-2.709603 1.496148,0 2.709016,1.213131 2.709016,2.709603 0,1.496474 -1.212868,2.709605 -2.709016,2.709605 -1.496149,0 -2.709017,-1.213131 -2.709017,-2.709605 z" />
</svg>
