<?xml version="1.0" encoding="UTF-8" standalone="no"?>
<svg
   xmlns:dc="http://purl.org/dc/elements/1.1/"
   xmlns:cc="http://creativecommons.org/ns#"
   xmlns:rdf="http://www.w3.org/1999/02/22-rdf-syntax-ns#"
   xmlns:svg="http://www.w3.org/2000/svg"
   xmlns="http://www.w3.org/2000/svg"
   xmlns:sodipodi="http://sodipodi.sourceforge.net/DTD/sodipodi-0.dtd"
   xmlns:inkscape="http://www.inkscape.org/namespaces/inkscape"
   width="30"
   height="21"
   version="1.1"
   id="svg6"
   sodipodi:docname="dishwasher_on.svg"
   inkscape:version="0.92.4 5da689c313, 2019-01-14">
  <metadata
     id="metadata12">
    <rdf:RDF>
      <cc:Work
         rdf:about="">
        <dc:format>image/svg+xml</dc:format>
        <dc:type
           rdf:resource="http://purl.org/dc/dcmitype/StillImage" />
        <dc:title></dc:title>
      </cc:Work>
    </rdf:RDF>
  </metadata>
  <defs
     id="defs10" />
  <sodipodi:namedview
     pagecolor="#ffffff"
     bordercolor="#666666"
     borderopacity="1"
     objecttolerance="10"
     gridtolerance="10"
     guidetolerance="10"
     inkscape:pageopacity="0"
     inkscape:pageshadow="2"
     inkscape:window-width="1132"
     inkscape:window-height="1200"
     id="namedview8"
     showgrid="false"
     fit-margin-top="0"
     fit-margin-left="0"
     fit-margin-right="0"
     fit-margin-bottom="0"
     inkscape:zoom="10.866667"
     inkscape:cx="30"
     inkscape:cy="21"
     inkscape:window-x="60"
     inkscape:window-y="0"
     inkscape:window-maximized="0"
     inkscape:current-layer="svg6" />
  <path
     d="M 0.79474,15.013339 V 1.98851 c 0,-0.65781 0.52211,-1.19317 1.16363,-1.19317 h 26.08327 c 0.64168,0 1.16363,0.53536 1.16363,1.19317 v 13.024829 z"
     style="fill:#39d1ff;fill-opacity:1;fill-rule:nonzero;stroke:none"
     id="path2"
     inkscape:connector-curvature="0" />
  <path
     d="m 0,19.62859 c 0,0.29173 0.23832,0.5304 0.52982,0.5304 h 0.52984 v 0.31078 C 1.05966,20.7615 1.29815,21 1.58948,21 H 2.4676 c 0.29134,0 0.52949,-0.2385 0.52949,-0.53023 v -0.31078 h 24.00549 v 0.31078 C 27.00258,20.7615 27.24091,21 27.5324,21 h 0.87796 c 0.29167,0 0.53015,-0.2385 0.53015,-0.53023 v -0.31078 h 0.52967 C 29.76151,20.15899 30,19.92032 30,19.62859 V 15.54374 H 0 Z M 28.04164,0 H 1.95837 C 0.87881,0 0,0.89201 0,1.98851 V 15.01334 H 0.79474 V 1.98851 c 0,-0.65781 0.52211,-1.19317 1.16363,-1.19317 h 26.08327 c 0.64168,0 1.16363,0.53536 1.16363,1.19317 V 15.01334 H 30 V 1.98851 C 30,0.89201 29.12153,0 28.04164,0 Z M 2.52422,13.9529 H 3.01476 V 9.12886 h 1.25662 v 4.82404 h 0.4907 V 9.12886 H 6.01853 V 13.9529 H 6.50924 V 9.12886 H 7.76569 V 13.9529 H 8.25657 V 9.12886 h 1.25645 v 4.82404 h 0.49069 V 9.12886 h 1.25645 v 4.82404 h 0.49088 V 9.12886 h 1.25646 v 4.82404 h 0.4907 V 9.12886 h 1.25663 v 4.82404 h 0.49051 V 9.12886 h 1.25681 v 4.82404 h 0.49052 V 9.12886 h 1.25662 v 4.82404 h 0.49055 V 9.12886 h 1.25678 v 4.82404 h 0.49055 V 9.12886 h 1.25609 v 4.82404 h 0.49089 V 9.12886 h 1.25644 V 13.9529 H 23.9813 V 9.12886 h 1.25645 v 4.82404 h 0.49087 V 9.12886 h 1.25645 v 4.82404 h 0.49071 V 8.63761 H 2.52422 Z m -1.09979,0.79533 c 0,0.14664 0.11873,0.26511 0.26473,0.26511 h 26.62151 c 0.14636,0 0.26508,-0.11847 0.26508,-0.26511 0,-0.14629 -0.11872,-0.26494 -0.26508,-0.26494 H 1.68916 c -0.146,0 -0.26473,0.11865 -0.26473,0.26494 z M 3.01476,2.06527 V 8.10738 H 4.27138 V 3.32284 Z m 1.74732,0 V 8.10738 H 6.01853 V 3.32284 Z m 1.74716,0 V 8.10738 H 7.76569 V 3.32284 Z M 8.25657,4.84086 V 8.10738 H 9.51302 V 6.09826 Z m 1.74714,0 v 3.26652 h 1.25645 V 6.09826 Z m 1.74733,0 V 8.10738 H 13.0075 V 6.09826 Z m 12.349,3.26652 V 6.71452 c 0.38397,-0.25893 0.64787,-0.78882 0.64787,-1.4018 0,-0.86797 -0.52742,-1.57145 -1.1777,-1.57145 -0.6501,0 -1.17787,0.70348 -1.17787,1.57145 0,0.61298 0.26422,1.14269 0.64822,1.4018 v 1.39286 z m -5.77078,0 v -2.0548 c 0,-0.29189 -0.23849,-0.53038 -0.52965,-0.53038 h -2.20956 c -0.29133,0 -0.52966,0.23849 -0.52966,0.53038 v 0.77096 h -0.23368 c -0.43856,0 -0.79475,0.35681 -0.79475,0.79551 v 0.48833 h 0.52966 V 7.61905 c 0,-0.14628 0.11908,-0.26528 0.26509,-0.26528 h 0.23368 v 0.75361 h 3.26886 z m 3.00377,-4.21243 h -1.94411 c -0.29169,0 -0.53001,0.23867 -0.53001,0.53022 v 3.68221 h 3.00395 V 4.42517 c 0,-0.29155 -0.23849,-0.53022 -0.52983,-0.53022 z m 4.2568,-1.10029 c -0.14601,0 -0.26474,0.11847 -0.26474,0.26512 l -0.10622,5.0476 h 0.74224 l -0.1062,-5.0476 c 0,-0.14665 -0.11874,-0.26512 -0.26508,-0.26512 z m 1.05982,0 c -0.14653,0 -0.26509,0.11847 -0.26509,0.26512 l -0.10585,5.0476 h 0.74172 l -0.1057,-5.0476 c 0,-0.14665 -0.11873,-0.26512 -0.2651,-0.26512"
     style="fill:#000000;fill-opacity:1;fill-rule:nonzero;stroke:none"
     id="path4"
     inkscape:connector-curvature="0" />
</svg>
