<?xml version="1.0" encoding="UTF-8" standalone="no"?>
<svg
   xmlns="http://www.w3.org/2000/svg"
   width="21"
   height="21"
   version="1.1">
  <rect
     style="fill:#ffffff;stroke:#000000;stroke-width:1;stroke-linejoin:bevel;stroke-miterlimit:4;stroke-dasharray:none;stroke-opacity:1"
     width="10"
     height="20"
     x="-10"
     y="11" />
  <rect
     style="fill:#96ff4b;fill-opacity:1;stroke:#000000;stroke-width:1;stroke-linejoin:bevel;stroke-miterlimit:4;stroke-dasharray:none;stroke-opacity:1"
     width="3"
     height="8"
     x="-6.5"
     y="17" />
  <path
     style="fill:#96ff4b;fill-opacity:1;stroke:none"
     d="m 2.2499999,20.875 a 0.62500019,0.62500019 0 0 1 -1.25000036,0 0.62500019,0.62500019 0 1 1 1.25000036,0 z" />
  <path
     style="fill:none;stroke:#96ff4b;stroke-width:0.5;stroke-linecap:butt;stroke-linejoin:miter;stroke-miterlimit:4;stroke-dasharray:none;stroke-opacity:1"
     d="m 2.000001,20.75 0,-4.5175" />
  <path
     style="fill:#96ff4b;fill-opacity:1;stroke:none"
     d="m 5.2499999,20.175318 a 0.62500019,0.62500019 0 0 1 -1.2500004,0 0.62500019,0.62500019 0 1 1 1.2500004,0 z" />
  <path
     style="fill:none;stroke:#96ff4b;stroke-width:0.5;stroke-linecap:butt;stroke-linejoin:miter;stroke-miterlimit:4;stroke-dasharray:none;stroke-opacity:1"
     d="m 5.000001,20.25 0,-4.75" />
  <path
     style="fill:#96ff4b;fill-opacity:1;stroke:none"
     d="m 1.750001,16 3.5,-1 0,0.75 -3.5,1 z" />
  <path
     style="fill:#96ff4b;fill-opacity:1;stroke:none"
     d="m 6.7499999,16.875 a 0.62500019,0.62500019 0 0 1 -1.2500004,0 0.62500019,0.62500019 0 1 1 1.2500004,0 z" />
  <path
     style="fill:none;stroke:#96ff4b;stroke-width:0.5;stroke-linecap:butt;stroke-linejoin:miter;stroke-miterlimit:4;stroke-dasharray:none;stroke-opacity:1"
     d="m 6.500001,16.75 0,-4.5175" />
  <path
     style="fill:#96ff4b;fill-opacity:1;stroke:none"
     d="m 9.7499999,16.175318 a 0.62500019,0.62500019 0 0 1 -1.2500004,0 0.62500019,0.62500019 0 1 1 1.2500004,0 z" />
  <path
     style="fill:none;stroke:#96ff4b;stroke-width:0.5;stroke-linecap:butt;stroke-linejoin:miter;stroke-miterlimit:4;stroke-dasharray:none;stroke-opacity:1"
     d="m 9.500001,16.25 0,-4.75" />
  <path
     style="fill:#96ff4b;fill-opacity:1;stroke:none"
     d="m 6.250001,12 3.5,-1 0,0.75 -3.5,1 z" />
</svg>
