<?xml version="1.0" encoding="UTF-8" standalone="no"?>
<svg
   xmlns="http://www.w3.org/2000/svg"
   width="61"
   height="91"
   version="1.1">
  <path
     style="fill:#ffffff;stroke:#000000;stroke-width:1;stroke-linecap:butt;stroke-linejoin:miter;stroke-miterlimit:4;stroke-dasharray:none;stroke-opacity:1"
     d="m -30,133 0,-84 c 0,-1.5 1.5,-3 3,-3 l 54,0 c 1.5,0 3,1.5 3,3 l 0,84 c 0,1.5 -1.5,3 -3,3 l -54,0 c -1.5,0 -3,-1.5 -3,-3 z" />
  <path
     style="fill:#ffffff;stroke:#000000;stroke-width:1;stroke-linecap:butt;stroke-linejoin:miter;stroke-miterlimit:4;stroke-dasharray:none;stroke-opacity:1"
     d="m -23.5,51.5 20,0 c 1,0 2,1 2,2 l 0,11 c 0,1 -1,2 -2,2 l -20,0 c -1,0 -2,-1 -2,-2 l 0,-11 c 0,-1 1,-2 2,-2 z" />
  <path
     style="fill:#ffffff;stroke:#000000;stroke-width:1;stroke-linecap:butt;stroke-linejoin:miter;stroke-miterlimit:4;stroke-dasharray:none;stroke-opacity:1"
     d="m 3.5,51.5 20,0 c 1,0 2,1 2,2 l 0,11 c 0,1 -1,2 -2,2 l -20,0 c -1,0 -2,-1 -2,-2 l 0,-11 c 0,-1 1,-2 2,-2 z" />
  <path
     style="fill:none;stroke:#000000;stroke-width:0.99790102px;stroke-linecap:butt;stroke-linejoin:miter;stroke-opacity:1"
     d="m -30.5,71 60,0" />
  <path
     style="fill:none;stroke:#000000;stroke-width:1.00116122px;stroke-linecap:butt;stroke-linejoin:miter;stroke-opacity:1"
     d="m -30.5,76 60,0" />
</svg>
