<?xml version="1.0" encoding="UTF-8" standalone="no"?>
<svg
   xmlns:dc="http://purl.org/dc/elements/1.1/"
   xmlns:cc="http://creativecommons.org/ns#"
   xmlns:rdf="http://www.w3.org/1999/02/22-rdf-syntax-ns#"
   xmlns:svg="http://www.w3.org/2000/svg"
   xmlns="http://www.w3.org/2000/svg"
   xmlns:sodipodi="http://sodipodi.sourceforge.net/DTD/sodipodi-0.dtd"
   xmlns:inkscape="http://www.inkscape.org/namespaces/inkscape"
   width="30.205986"
   height="29.903996"
   version="1.1"
   id="svg10"
   sodipodi:docname="fridge_on.svg"
   inkscape:version="0.92.4 5da689c313, 2019-01-14">
  <metadata
     id="metadata16">
    <rdf:RDF>
      <cc:Work
         rdf:about="">
        <dc:format>image/svg+xml</dc:format>
        <dc:type
           rdf:resource="http://purl.org/dc/dcmitype/StillImage" />
        <dc:title></dc:title>
      </cc:Work>
    </rdf:RDF>
  </metadata>
  <defs
     id="defs14" />
  <sodipodi:namedview
     pagecolor="#ffffff"
     bordercolor="#666666"
     borderopacity="1"
     objecttolerance="10"
     gridtolerance="10"
     guidetolerance="10"
     inkscape:pageopacity="0"
     inkscape:pageshadow="2"
     inkscape:window-width="1110"
     inkscape:window-height="1200"
     id="namedview12"
     showgrid="false"
     fit-margin-top="0"
     fit-margin-left="0"
     fit-margin-right="0"
     fit-margin-bottom="0"
     inkscape:zoom="7.8666667"
     inkscape:cx="30"
     inkscape:cy="29.903996"
     inkscape:window-x="60"
     inkscape:window-y="0"
     inkscape:window-maximized="0"
     inkscape:current-layer="svg10" />
  <rect
     style="fill:#ffffff;fill-opacity:1;stroke:#000000;stroke-width:1;stroke-linecap:butt;stroke-linejoin:round;stroke-miterlimit:4;stroke-dasharray:none;stroke-opacity:1"
     width="29.039371"
     height="25.039371"
     x="0.58060646"
     y="4.364624"
     id="rect2" />
  <rect
     style="fill:#ffffff;stroke:#000000;stroke-width:1;stroke-linecap:butt;stroke-linejoin:round;stroke-miterlimit:4;stroke-dasharray:none;stroke-opacity:1"
     width="1.7685633"
     height="1.7685634"
     x="1.6942043"
     y="0.5"
     id="rect4" />
  <rect
     style="fill:#ffffff;fill-opacity:1;stroke:#000000;stroke-width:1;stroke-linecap:butt;stroke-linejoin:round;stroke-miterlimit:4;stroke-dasharray:none;stroke-opacity:1"
     width="29.205986"
     height="1.2059865"
     x="0.5"
     y="1.78125"
     id="rect6" />
  <path
     style="fill:none;stroke:#00ffff;stroke-width:1px;stroke-linecap:butt;stroke-linejoin:miter;stroke-opacity:1"
     d="M 9.080127,15.267258 10.696152,14.46822 10.580127,12.669182 M 7.3480762,14.267258 8.9641016,13.46822 8.8480762,11.669182 M 5.6160254,13.267258 7.2320508,12.46822 7.1160254,10.669182 m 5.3121776,4.799038 -6.928203,-4 m 5.080127,9.5 0.116025,-1.799038 -1.616025,-0.799038 M 8.8480762,21.96822 8.9641016,20.169182 7.3480762,19.370144 M 7.1160254,22.96822 7.2320508,21.169182 5.6160254,20.370144 m 6.8121776,-2.200962 -6.928203,4 m 13.848076,-9.5 -0.116026,1.799038 1.616026,0.799038 m 0.232051,-3.598076 -0.116026,1.799038 1.616026,0.799038 m 0.23205,-3.598076 -0.116025,1.799038 1.616025,0.799038 M 17.5,15.46822 l 6.928203,-4 m -3.580127,7.151924 -1.616026,0.799038 0.116026,1.799038 m 3.232051,-1.598076 -1.616026,0.799038 0.116026,1.799038 m 3.23205,-1.598076 -1.616025,0.799038 0.116025,1.799038 M 17.5,18.419182 l 6.928203,4 M 16.491525,22 l -1.5,-1 -1.5,1 m 3,2 -1.5,-1 -1.5,1 m 3,2 -1.5,-1 -1.5,1 m 1.5,-7 v 8 m -1.5,-15.5 1.5,1 1.5,-1 m -3,-2 1.5,1 1.5,-1 m -3,-2 1.5,1 1.5,-1 m -1.5,7 v -8 m -1.578389,8.165254 h 3 l 1.5,2.25 -1.5,2.25 h -3 l -1.5,-2.25 z"
     id="path8"
     inkscape:connector-curvature="0" />
</svg>
