<?xml version="1.0" encoding="UTF-8" standalone="no"?>
<svg
   xmlns="http://www.w3.org/2000/svg"
   width="30"
   height="30"
   version="1.1">
  <rect
     style="fill:#ffffff;fill-opacity:1;stroke:#000000;stroke-width:1;stroke-linecap:butt;stroke-linejoin:round;stroke-miterlimit:4;stroke-dasharray:none;stroke-opacity:1"
     width="29.039371"
     height="25.039371"
     x="-14.419394"
     y="19.364624" />
  <rect
     style="fill:#ffffff;stroke:#000000;stroke-width:1;stroke-linecap:butt;stroke-linejoin:round;stroke-miterlimit:4;stroke-dasharray:none;stroke-opacity:1"
     width="1.7685633"
     height="1.7685634"
     x="-13.305796"
     y="15.5" />
  <rect
     style="fill:#ffffff;fill-opacity:1;stroke:#000000;stroke-width:1;stroke-linecap:butt;stroke-linejoin:round;stroke-miterlimit:4;stroke-dasharray:none;stroke-opacity:1"
     width="29.205986"
     height="1.2059865"
     x="-14.5"
     y="16.78125" />
  <path
     style="fill:none;stroke:#00ffff;stroke-width:1px;stroke-linecap:butt;stroke-linejoin:miter;stroke-opacity:1"
     d="m -5.919873,30.267258 1.616025,-0.799038 -0.116025,-1.799038 m -3.2320508,1.598076 1.6160254,-0.799038 -0.1160254,-1.799038 m -3.2320508,1.598076 1.6160254,-0.799038 -0.1160254,-1.799038 m 5.3121776,4.799038 -6.928203,-4 m 5.080127,9.5 0.116025,-1.799038 -1.616025,-0.799038 m -0.2320508,3.598076 0.1160254,-1.799038 -1.6160254,-0.799038 m -0.2320508,3.598076 0.1160254,-1.799038 -1.6160254,-0.799038 m 6.8121776,-2.200962 -6.928203,4 m 13.848076,-9.5 -0.116026,1.799038 1.616026,0.799038 m 0.232051,-3.598076 -0.116026,1.799038 1.616026,0.799038 m 0.23205,-3.598076 -0.116025,1.799038 1.616025,0.799038 M 2.5,30.46822 l 6.928203,-4 M 5.848076,33.620144 4.23205,34.419182 4.348076,36.21822 m 3.232051,-1.598076 -1.616026,0.799038 0.116026,1.799038 m 3.23205,-1.598076 -1.616025,0.799038 0.116025,1.799038 M 2.5,33.419182 l 6.928203,4 M 1.491525,37 l -1.5,-1 -1.5,1 m 3,2 -1.5,-1 -1.5,1 m 3,2 -1.5,-1 -1.5,1 m 1.5,-7 0,8 m -1.5,-15.5 1.5,1 1.5,-1 m -3,-2 1.5,1 1.5,-1 m -3,-2 1.5,1 1.5,-1 m -1.5,7 0,-8 m -1.578389,8.165254 3,0 1.5,2.25 -1.5,2.25 -3,0 -1.5,-2.25 z" />
</svg>
