<?xml version="1.0" encoding="UTF-8" standalone="no"?>
<svg
   xmlns="http://www.w3.org/2000/svg"
   width="13"
   height="13"
   version="1.1">
  <path
     d="m 2.9231869,13.442888 c 0.2170255,0.251414 0.4417892,0.552104 0.6697841,0.913498 1.454495,2.305639 2.662002,4.838989 2.674,4.864333 l 0,-6.2e-5 c 0.01,0.02098 0.01009,0.03349 0.0093,0.03621 -6.19e-4,-3.1e-4 -0.0112,0.0056 -0.03324,0.0056 l -11.2108834,0 c -0.021109,-1.85e-4 -0.031571,-0.0056 -0.033552,-0.0077 4.705e-4,-5.63e-4 5.881e-4,-0.01306 0.010524,-0.03405 0.01201,-0.02526 1.2195045,-2.558613 2.6739994,-4.864252 0.2279208,-0.361394 0.4527588,-0.662085 0.6697101,-0.913499 z"
     style="fill:#ffffff;fill-opacity:1;fill-rule:nonzero;stroke:none" />
  <path
     d="m -1.4309501,13.20539 c 1.0274327,-1.065407 1.827898,-1.025905 1.8380565,-1.0252 l 0.4537802,3.1e-4 c 0.016405,-0.0012 0.8183496,-0.04055 1.8460051,1.02489 z m -2.461239,2.925244 c -0.575553,-0.861393 -1.9949293,-2.985477 -2.1749297,-3.2548 l 0.8898371,0 c 0.040238,0.02495 1.6635719,1.0277 2.3440348,1.447997 z"
     style="fill:#ffffff;fill-opacity:1;fill-rule:nonzero;stroke:none" />
  <path
     d="M 3.0221292,13.20539 C 1.9720269,12.021237 1.1018446,11.942779 0.8967418,11.94208 l 0,-0.211442 c 0.1837518,-0.100045 0.3097899,-0.302882 0.3097899,-0.537396 0,-0.333624 -0.254577,-0.604043 -0.5684897,-0.604043 -0.3139127,0 -0.5684835,0.270419 -0.5684835,0.604043 0,0.234514 0.1260319,0.437271 0.3097898,0.537396 l 0,0.211126 c -0.1877322,-6.19e-4 -1.0646065,0.06719 -2.1255359,1.263626 l 0.3152375,0 c 1.0274327,-1.065407 1.827898,-1.025905 1.8380565,-1.0252 l 0.4537802,3.1e-4 c 0.016405,-0.0012 0.8183496,-0.04055 1.8460051,1.02489 l 0.3152375,0 z m 3.4444218,5.908301 0,-6.2e-5 C 6.454541,19.088189 5.241092,16.542264 3.778642,14.224108 3.59099,13.926705 3.4052451,13.668017 3.2237776,13.442888 l -0.3005907,0 c 0.2170255,0.251414 0.4417892,0.552104 0.6697841,0.913498 1.454495,2.305639 2.662002,4.838989 2.674,4.864333 l 0,-6.2e-5 c 0.01,0.02098 0.01009,0.03349 0.0093,0.03621 -6.19e-4,-3.1e-4 -0.0112,0.0056 -0.03324,0.0056 l -11.2108834,0 c -0.021109,-1.85e-4 -0.031571,-0.0056 -0.033552,-0.0077 4.705e-4,-5.63e-4 5.881e-4,-0.01306 0.010524,-0.03405 0.01201,-0.02526 1.2195045,-2.558613 2.6739994,-4.864252 0.2279208,-0.361394 0.4527588,-0.662085 0.6697101,-0.913499 l -0.3005103,0 c -0.181548,0.22513 -0.3672869,0.483818 -0.5549449,0.781221 -1.4624435,2.318156 -2.6757637,4.864103 -2.6878351,4.889521 -0.044262,0.09309 -0.044571,0.190004 -0.00124,0.265807 0.043581,0.07572 0.1247813,0.119681 0.2229189,0.120541 l 11.2126483,0 c 0.09909,-6.19e-4 0.180285,-0.04482 0.223872,-0.120541 0.04346,-0.0758 0.04302,-0.172721 -0.0012,-0.265727 z m -7.8031955,-5.670816 3.9492306,0 C 2.5318995,13.356747 2.4529028,13.27759 2.37546,13.20539 l -3.4753436,0 c -0.077152,0.0722 -0.1562228,0.151357 -0.2367609,0.237485 z M 0.638042,7.6876524 c 1.7324099,0 3.142073,1.4975886 3.142073,3.3385026 0,0.323923 -0.04445,0.636821 -0.125889,0.933209 l 0.433686,0.116084 c -0.129053,0.478183 -0.344314,0.91772 -0.6260612,1.29945 0.04779,0.06116 0.095711,0.124608 0.1439282,0.19032 0.316637,-0.417406 0.557223,-0.902702 0.698942,-1.431729 l -0.04798,-0.01281 0.481538,0.128911 C 4.841497,11.860116 4.897743,11.450145 4.897743,11.026171 4.897743,8.530447 2.9868806,6.5 0.6380606,6.5 c -0.8572938,0 -1.6554005,0.2712793 -2.3243739,0.7360855 l 0.5959444,1.0040736 C -0.5941778,7.8913564 -6.57e-5,7.6876648 0.6380606,7.6876648 Z m -2.8238088,5.6882606 c -0.4788207,-0.648082 -0.765421,-1.463795 -0.765421,-2.349758 0,-1.331598 0.6463039,-2.505344 1.6224238,-3.1876901 L -1.4480296,7.6376704 c -1.0386932,0.7245031 -1.7265909,1.9724056 -1.7265909,3.3884846 0,0.960899 0.317076,1.84428 0.8450738,2.539533 0.048224,-0.06556 0.096002,-0.128836 0.1437799,-0.189775 z m -1.7064223,2.754721 c -0.575553,-0.861393 -1.9949293,-2.985477 -2.1749297,-3.2548 l 0.8898371,0 c 0.040238,0.02495 1.6635719,1.0277 2.3440348,1.447997 0.040981,-0.06618 0.082302,-0.132279 0.123828,-0.198145 l -2.4076419,-1.487418 -1.3829392,0 2.483469,3.716561 c 0.040795,-0.074 0.082234,-0.148708 0.1243419,-0.224195 z m 3.8402039,-3.369869 c 0,-0.100831 -0.076861,-0.182415 -0.1716123,-0.182415 -0.094819,0 -0.1716742,0.08158 -0.1716742,0.182415 0,0.100676 0.076855,0.18234 0.1716742,0.18234 0.094745,0 0.1716123,-0.08166 0.1716123,-0.18234"
     style="fill:#231f20;fill-opacity:1;fill-rule:nonzero;stroke:none" />
</svg>
