<?xml version="1.0" encoding="UTF-8" standalone="no"?>
<svg
   xmlns:dc="http://purl.org/dc/elements/1.1/"
   xmlns:cc="http://creativecommons.org/ns#"
   xmlns:rdf="http://www.w3.org/1999/02/22-rdf-syntax-ns#"
   xmlns:svg="http://www.w3.org/2000/svg"
   xmlns="http://www.w3.org/2000/svg"
   xmlns:sodipodi="http://sodipodi.sourceforge.net/DTD/sodipodi-0.dtd"
   xmlns:inkscape="http://www.inkscape.org/namespaces/inkscape"
   width="16.299999"
   height="21"
   version="1.1"
   id="svg6"
   sodipodi:docname="lamp_on.svg"
   inkscape:version="0.92.4 5da689c313, 2019-01-14">
  <metadata
     id="metadata12">
    <rdf:RDF>
      <cc:Work
         rdf:about="">
        <dc:format>image/svg+xml</dc:format>
        <dc:type
           rdf:resource="http://purl.org/dc/dcmitype/StillImage" />
        <dc:title></dc:title>
      </cc:Work>
    </rdf:RDF>
  </metadata>
  <defs
     id="defs10" />
  <sodipodi:namedview
     pagecolor="#ffffff"
     bordercolor="#666666"
     borderopacity="1"
     objecttolerance="10"
     gridtolerance="10"
     guidetolerance="10"
     inkscape:pageopacity="0"
     inkscape:pageshadow="2"
     inkscape:window-width="1186"
     inkscape:window-height="1200"
     id="namedview8"
     showgrid="false"
     fit-margin-top="0"
     fit-margin-left="0"
     fit-margin-right="0"
     fit-margin-bottom="0"
     inkscape:zoom="11.238095"
     inkscape:cx="3.4419488"
     inkscape:cy="21"
     inkscape:window-x="60"
     inkscape:window-y="0"
     inkscape:window-maximized="0"
     inkscape:current-layer="svg6" />
  <path
     style="fill:#ffff00;stroke:none"
     d="M 0,7.65 H 6.426 L 3.451,1.775 H 2.975 Z"
     id="path2"
     inkscape:connector-curvature="0" />
  <path
     d="m 6.8616423,4.01725 -0.5853464,0.19593 8.2044461,6.28723 0.580713,-0.19939 C 13.293997,8.94628 7.1186519,4.21399 6.8616423,4.01725 Z M 15.993342,9.98114 16.089992,9.94774 7.8979571,3.67009 7.3126109,3.86602 c 0.074969,0.0576 6.3980991,4.90303 8.1963361,6.28113 L 15.993344,9.98099 Z M 6.8616423,18.7224 C 7.1181552,18.52582 13.293832,13.79322 15.061455,12.43846 L 14.480742,12.2394 6.0202792,18.7224 Z M 6.8005753,1.61818 c 0,0.18516 0,1.88195 0,1.88195 L 7.312112,3.34673 V 1.10669 H 4.5167814 l 0.259161,0.51149 z m 9.3615697,8.8546 -1.56142,0.53582 v 0.7271 L 16.3,12.31882 v -1.89336 l -0.137855,0.0473 z m -0.653199,2.11925 c -1.6205,1.24205 -6.9137721,5.29836 -7.9994016,6.13037 h 0.8411974 l 7.7392472,-5.93081 -0.09665,-0.0332 -0.484397,-0.16645 z M 7.5095444,19.24216 H 6.8047127 v 0.7185 H 2.6041868 V 21 H 11.709905 V 19.96066 H 7.5095444 Z M 3.8384284,0.91757 H 3.4728559 V 0 H 2.9530445 V 0.91757 H 2.5879685 L 0,6.0253 0.6,6.025 2.876,1.575 H 3.55 l 2.276,4.45 0.6000664,3e-4 -2.5876378,-5.10773"
     style="fill:#000000;fill-opacity:1;fill-rule:nonzero;stroke:none"
     id="path4"
     inkscape:connector-curvature="0" />
</svg>
