<?xml version="1.0" encoding="UTF-8" standalone="no"?>
<svg
   xmlns:dc="http://purl.org/dc/elements/1.1/"
   xmlns:cc="http://creativecommons.org/ns#"
   xmlns:rdf="http://www.w3.org/1999/02/22-rdf-syntax-ns#"
   xmlns:svg="http://www.w3.org/2000/svg"
   xmlns="http://www.w3.org/2000/svg"
   xmlns:sodipodi="http://sodipodi.sourceforge.net/DTD/sodipodi-0.dtd"
   xmlns:inkscape="http://www.inkscape.org/namespaces/inkscape"
   width="13.000197"
   height="21.000013"
   version="1.1"
   id="svg8"
   sodipodi:docname="light.svg"
   inkscape:version="0.92.4 5da689c313, 2019-01-14">
  <metadata
     id="metadata14">
    <rdf:RDF>
      <cc:Work
         rdf:about="">
        <dc:format>image/svg+xml</dc:format>
        <dc:type
           rdf:resource="http://purl.org/dc/dcmitype/StillImage" />
        <dc:title></dc:title>
      </cc:Work>
    </rdf:RDF>
  </metadata>
  <defs
     id="defs12" />
  <sodipodi:namedview
     pagecolor="#ffffff"
     bordercolor="#666666"
     borderopacity="1"
     objecttolerance="10"
     gridtolerance="10"
     guidetolerance="10"
     inkscape:pageopacity="0"
     inkscape:pageshadow="2"
     inkscape:window-width="1132"
     inkscape:window-height="1200"
     id="namedview10"
     showgrid="false"
     fit-margin-top="0"
     fit-margin-left="0"
     fit-margin-right="0"
     fit-margin-bottom="0"
     inkscape:zoom="11.238088"
     inkscape:cx="0.14194929"
     inkscape:cy="21.00002"
     inkscape:window-x="60"
     inkscape:window-y="0"
     inkscape:window-maximized="0"
     inkscape:current-layer="svg8" />
  <path
     d="m 4.3510411,16.945607 4.298114,0.6524 z m 0,1.2545 4.298114,0.6526 z m 0,1.2545 4.298114,0.6525 z m 0.823468,1.1051 h 2.402884 z"
     style="fill:none;stroke:#000000;stroke-width:0.8806141;stroke-linecap:round;stroke-linejoin:round;stroke-miterlimit:4;stroke-dasharray:none;stroke-opacity:1"
     id="path2"
     inkscape:connector-curvature="0" />
  <path
     d="m 6.4932511,0.44030705 c -3.349433,0 -6.05294405,2.74310005 -6.05294405,6.12450005 0,2.8767 2.25958305,4.0250999 2.25958305,5.8129999 v 1.3133 c 0,1.4311 1.143319,2.5854 2.560861,2.5854 h 2.478694 c 1.417542,0 2.5608619,-1.1543 2.5608619,-2.5854 v -1.3133 c 0,-1.7879 2.259583,-2.7687999 2.259583,-5.8129999 0,-3.3814 -2.7172069,-6.12450005 -6.0666389,-6.12450005 z"
     style="color:#000000;display:inline;overflow:visible;visibility:visible;fill:none;stroke:#000000;stroke-width:0.8806141;stroke-linecap:round;stroke-linejoin:round;stroke-miterlimit:4;stroke-dasharray:none;stroke-dashoffset:0;stroke-opacity:1;marker:none;enable-background:accumulate"
     id="path4"
     inkscape:connector-curvature="0" />
  <path
     d="m 2.3177971,6.0085071 c 0.337919,0.3653 0.640659,0.6454 1.054762,0.6454 0.486457,0 0.707006,-0.61 1.053693,-1.0507 0.345583,0.4349 0.667097,2.0145 2.111669,2.0145 1.44457,0 1.764984,-1.5738 2.111669,-2.0145 0.345586,0.4349 0.557605,1.0507 1.040493,1.0507 0.4141029,0 0.6101889,-0.2801 0.9481069,-0.6454"
     style="color:#000000;display:inline;overflow:visible;visibility:visible;fill:none;stroke:#000000;stroke-width:0.44030702;stroke-linecap:round;stroke-linejoin:round;stroke-miterlimit:4;stroke-dasharray:none;stroke-dashoffset:0;stroke-opacity:1;marker:none;enable-background:accumulate"
     id="path6"
     inkscape:connector-curvature="0" />
</svg>
