<?xml version="1.0" encoding="UTF-8" standalone="no"?>
<svg
   xmlns:dc="http://purl.org/dc/elements/1.1/"
   xmlns:cc="http://creativecommons.org/ns#"
   xmlns:rdf="http://www.w3.org/1999/02/22-rdf-syntax-ns#"
   xmlns:svg="http://www.w3.org/2000/svg"
   xmlns="http://www.w3.org/2000/svg"
   xmlns:sodipodi="http://sodipodi.sourceforge.net/DTD/sodipodi-0.dtd"
   xmlns:inkscape="http://www.inkscape.org/namespaces/inkscape"
   width="20.028908"
   height="13.021495"
   version="1.1"
   id="svg12"
   sodipodi:docname="microwave.svg"
   inkscape:version="0.92.4 5da689c313, 2019-01-14">
  <metadata
     id="metadata18">
    <rdf:RDF>
      <cc:Work
         rdf:about="">
        <dc:format>image/svg+xml</dc:format>
        <dc:type
           rdf:resource="http://purl.org/dc/dcmitype/StillImage" />
        <dc:title></dc:title>
      </cc:Work>
    </rdf:RDF>
  </metadata>
  <defs
     id="defs16" />
  <sodipodi:namedview
     pagecolor="#ffffff"
     bordercolor="#666666"
     borderopacity="1"
     objecttolerance="10"
     gridtolerance="10"
     guidetolerance="10"
     inkscape:pageopacity="0"
     inkscape:pageshadow="2"
     inkscape:window-width="890"
     inkscape:window-height="595"
     id="namedview14"
     showgrid="false"
     fit-margin-top="0"
     fit-margin-left="0"
     fit-margin-right="0"
     fit-margin-bottom="0"
     inkscape:zoom="16.3"
     inkscape:cx="11.135069"
     inkscape:cy="13.021436"
     inkscape:window-x="1030"
     inkscape:window-y="0"
     inkscape:window-maximized="0"
     inkscape:current-layer="svg12" />
  <path
     style="fill:#ffffff;stroke:none"
     d="M 1.0000056e-4,0.34405925 V 11.406059 H 20.0001 V 0.34405925 Z"
     id="path2"
     inkscape:connector-curvature="0" />
  <path
     style="fill:#ffffff;stroke:none"
     d="m 2.8191,2.9060592 v 5.969 h 10.081 v -5.969 z"
     id="path4"
     inkscape:connector-curvature="0" />
  <path
     style="fill:#000000;fill-opacity:1;fill-rule:nonzero;stroke:none"
     d="M 0.34385,5.9249963e-5 C 0.1580147,-0.00341415 -0.004614,0.16211685 1.0000056e-4,0.34380925 V 2.5625592 H 16.0001 V 5.9249963e-5 Z m 15.96875,0 V 8.8750592 h 3.6875 V 0.34380925 c 0.0049,-0.1817766 -0.158432,-0.3474009 -0.34375,-0.343750000037 z M 0.4376,0.34380925 H 15.6251 V 2.1875592 H 0.34385 V 0.43755925 c 0,-0.042396 0.044578,-0.09375 0.09375,-0.09375 z m 16.21875,0 h 2.84375 c 0.05934,0 0.15625,0.053941 0.15625,0.15625 V 8.5313092 h -3 z M 1.0000056e-4,2.9063092 v 5.96875 H 2.46885 v -5.969 z m 13.24999999944,0 v 5.96875 h 2.75 v -5.96875 z m -12.90625,0.34375 h 1.75 v 5.28125 h -1.75 z m 13.25,0 h 2.03125 v 5.28125 h -2.03125 z m -6.875,4.15625 c -0.9793534,0.0288 -1.945722,0.117575 -2.90625,0.3125 -0.9400428,0.459823 1.0380394,0.586635 1.40625,0.625 2.158393,0.152221 4.3598883,0.167879 6.5,-0.1875 0.166281,-0.06375 0.449523,-0.05905 0.53125,-0.25 -0.719418,-0.485754 -1.7454,-0.352938 -2.59375,-0.46875 -0.9751793,-0.03484 -1.9581466,-0.06005 -2.9375,-0.03125 z m -6.71874999944,1.8125 c -3.1999996e-5,0.732356 1.113e-4,1.4551768 0,2.1874998 C 0.072802,11.929147 0.6975811,11.73548 1.0626,11.781309 c 0.3196105,-0.05409 0.5747484,0.02879 0.75,0.3125 0.4174957,0.197239 -0.034398,0.856562 0.53125,0.90625 0.4497707,0.114001 0.7943627,-0.242863 0.6875,-0.6875 0.1662069,-0.126287 0.3761955,-0.579553 0.5625,-0.46875 0.2278604,0.186796 0.3754948,0.566471 0.71875,0.46875 h 10.15625 c 0.245453,-0.180442 0.393485,-0.610699 0.75,-0.53125 0.225698,-0.0625 0.714747,0.127956 0.78125,-0.09375 V 9.2188092 Z M 16.59385,9.2500592 c -0.217334,0.004 -0.373404,0.09275 -0.28125,0.40625 0.03515,0.253262 -0.05349,0.6400768 0.0625,0.8124998 0.371585,0.07645 0.532347,-0.04752 0.4375,-0.4375 V 9.2500592 c -0.0833,-0.0095 -0.146305,-0.0013 -0.21875,0 z m 0.5625,0 v 1.2187498 h 2 V 9.2500592 Z m 2.5625,0 c -0.202747,0.018606 -0.289887,0.14501 -0.21875,0.4375 v 0.7812498 c 0.333216,0.03808 0.622874,0.04301 0.5,-0.375 -0.03515,-0.2532618 0.05349,-0.6713268 -0.0625,-0.8437498 -0.0929,-0.01911 -0.151168,-0.0062 -0.21875,0 z m -19.375,0.3125 H 15.6251 V 10.843809 H 0.34385 Z M 16.3126,10.843809 v 0.9375 c 0.190769,0.261901 0.597233,0.435086 0.5,0.8125 -0.07107,0.568115 1.077356,0.563639 1.03125,0 -0.101884,-0.364705 0.24414,-0.535017 0.4375,-0.78125 0.277758,-0.104919 0.659246,-6.3e-4 0.96875,-0.03125 0.43347,0.09451 0.873297,-0.161712 0.75,-0.65625 0.130815,-0.430413 -0.365255,-0.241397 -0.625,-0.28125 z"
     id="path6"
     inkscape:connector-curvature="0" />
  <path
     style="fill:none;stroke:#000000;stroke-width:0.25;stroke-miterlimit:4;stroke-dasharray:none"
     d="m 19.31891,4.1453722 a 1.1511226,1.1511226 0 0 1 -2.302246,0 1.1511226,1.1511226 0 1 1 2.302246,0 z"
     id="path8"
     inkscape:connector-curvature="0" />
  <path
     style="fill:none;stroke:#000000;stroke-width:0.25;stroke-linecap:butt;stroke-linejoin:miter;stroke-miterlimit:4;stroke-dasharray:none;stroke-opacity:1"
     d="m 17.40635,3.3594342 1.554687,1.554688"
     id="path10"
     inkscape:connector-curvature="0" />
</svg>
