<?xml version="1.0" encoding="UTF-8" standalone="no"?>
<svg
   xmlns="http://www.w3.org/2000/svg"
   width="20"
   height="13"
   version="1.1">
  <path
     style="fill:#ffffff;stroke:none"
     d="m -10,6.844 0,11.062 20,0 0,-11.062 z" />
  <path
     style="fill:#ffffff;stroke:none"
     d="m -7.181,9.406 0,5.969 10.081,0 0,-5.969 z" />
  <path
     style="fill:#000000;fill-opacity:1;fill-rule:nonzero;stroke:none"
     d="M -9.65625,6.5 C -9.8420853,6.4965266 -10.004714,6.6620576 -10,6.84375 l 0,2.21875 16,0 L 6,6.5 Z m 15.96875,0 0,8.875 3.6875,0 0,-8.53125 C 10.004891,6.6619734 9.841568,6.4963491 9.65625,6.5 Z m -15.875,0.34375 15.1875,0 0,1.84375 -15.28125,0 0,-1.75 c 0,-0.042396 0.044578,-0.09375 0.09375,-0.09375 z m 16.21875,0 2.84375,0 c 0.05934,0 0.15625,0.053941 0.15625,0.15625 l 0,8.03125 -3,0 z M -10,9.40625 l 0,5.96875 2.46875,0 0,-5.969 z m 13.25,0 0,5.96875 2.75,0 0,-5.96875 z M -9.65625,9.75 l 1.75,0 0,5.28125 -1.75,0 z m 13.25,0 2.03125,0 0,5.28125 -2.03125,0 z m -6.875,4.15625 c -0.9793534,0.0288 -1.945722,0.117575 -2.90625,0.3125 -0.9400428,0.459823 1.0380394,0.586635 1.40625,0.625 2.158393,0.152221 4.3598883,0.167879 6.5,-0.1875 0.166281,-0.06375 0.449523,-0.05905 0.53125,-0.25 -0.719418,-0.485754 -1.7454,-0.352938 -2.59375,-0.46875 -0.9751793,-0.03484 -1.9581466,-0.06005 -2.9375,-0.03125 z M -10,15.71875 c -3.2e-5,0.732356 1.113e-4,1.455177 0,2.1875 0.072702,0.522838 0.6974811,0.329171 1.0625,0.375 0.3196105,-0.05409 0.5747484,0.02879 0.75,0.3125 0.4174957,0.197239 -0.034398,0.856562 0.53125,0.90625 0.4497707,0.114001 0.7943627,-0.242863 0.6875,-0.6875 0.1662069,-0.126287 0.3761955,-0.579553 0.5625,-0.46875 0.2278604,0.186796 0.3754948,0.566471 0.71875,0.46875 l 10.15625,0 c 0.245453,-0.180442 0.393485,-0.610699 0.75,-0.53125 C 5.444448,18.21875 5.933497,18.409206 6,18.1875 L 6,15.71875 Z M 6.59375,15.75 c -0.217334,0.004 -0.373404,0.09275 -0.28125,0.40625 0.03515,0.253262 -0.05349,0.640077 0.0625,0.8125 0.371585,0.07645 0.532347,-0.04752 0.4375,-0.4375 l 0,-0.78125 c -0.0833,-0.0095 -0.146305,-0.0013 -0.21875,0 z m 0.5625,0 0,1.21875 2,0 0,-1.21875 z m 2.5625,0 C 9.516003,15.768606 9.428863,15.89501 9.5,16.1875 l 0,0.78125 c 0.333216,0.03808 0.622874,0.04301 0.5,-0.375 -0.03515,-0.253262 0.05349,-0.671327 -0.0625,-0.84375 -0.0929,-0.01911 -0.151168,-0.0062 -0.21875,0 z m -19.375,0.3125 15.28125,0 0,1.28125 -15.28125,0 z m 15.96875,1.28125 0,0.9375 c 0.190769,0.261901 0.597233,0.435086 0.5,0.8125 -0.07107,0.568115 1.077356,0.563639 1.03125,0 C 7.741866,18.729045 8.08789,18.558733 8.28125,18.3125 8.559008,18.207581 8.940496,18.31187 9.25,18.28125 9.68347,18.37576 10.123297,18.119538 10,17.625 10.130815,17.194587 9.634745,17.383603 9.375,17.34375 Z" />
  <path
     style="fill:none;stroke:#000000;stroke-width:0.25;stroke-miterlimit:4;stroke-dasharray:none"
     d="m 9.3188096,10.645313 a 1.1511226,1.1511226 0 0 1 -2.3022452,0 1.1511226,1.1511226 0 1 1 2.3022452,0 z" />
  <path
     style="fill:none;stroke:#000000;stroke-width:0.25;stroke-linecap:butt;stroke-linejoin:miter;stroke-miterlimit:4;stroke-dasharray:none;stroke-opacity:1"
     d="m 7.40625,9.859375 1.554687,1.554688" />
</svg>
