<?xml version="1.0" encoding="UTF-8" standalone="no"?>
<svg
   xmlns:dc="http://purl.org/dc/elements/1.1/"
   xmlns:cc="http://creativecommons.org/ns#"
   xmlns:rdf="http://www.w3.org/1999/02/22-rdf-syntax-ns#"
   xmlns:svg="http://www.w3.org/2000/svg"
   xmlns="http://www.w3.org/2000/svg"
   xmlns:sodipodi="http://sodipodi.sourceforge.net/DTD/sodipodi-0.dtd"
   xmlns:inkscape="http://www.inkscape.org/namespaces/inkscape"
   width="13.5"
   height="16.026737"
   version="1.1"
   id="svg50"
   sodipodi:docname="movement_on.svg"
   inkscape:version="0.92.4 5da689c313, 2019-01-14">
  <metadata
     id="metadata56">
    <rdf:RDF>
      <cc:Work
         rdf:about="">
        <dc:format>image/svg+xml</dc:format>
        <dc:type
           rdf:resource="http://purl.org/dc/dcmitype/StillImage" />
        <dc:title></dc:title>
      </cc:Work>
    </rdf:RDF>
  </metadata>
  <defs
     id="defs54" />
  <sodipodi:namedview
     pagecolor="#ffffff"
     bordercolor="#666666"
     borderopacity="1"
     objecttolerance="10"
     gridtolerance="10"
     guidetolerance="10"
     inkscape:pageopacity="0"
     inkscape:pageshadow="2"
     inkscape:window-width="1130"
     inkscape:window-height="1200"
     id="namedview52"
     showgrid="false"
     fit-margin-top="0"
     fit-margin-left="0"
     fit-margin-right="0"
     fit-margin-bottom="0"
     inkscape:zoom="15.893057"
     inkscape:cx="-7.7175112"
     inkscape:cy="6.1425999"
     inkscape:window-x="60"
     inkscape:window-y="0"
     inkscape:window-maximized="0"
     inkscape:current-layer="svg50" />
  <path
     type="arc"
     style="fill:#00f0ac;fill-opacity:1;stroke:#000000;stroke-width:0.5;stroke-linecap:butt;stroke-miterlimit:4;stroke-dasharray:none;stroke-opacity:1"
     cx="147.14285"
     cy="518.07648"
     rx="27.142857"
     ry="27.142857"
     d="m 13.25,6.7382224 c 0,3.5833436 -2.910149,6.4882236 -6.5000011,6.4882236 C 3.1601501,13.226446 0.25,10.321566 0.25,6.7382224 0.25,3.154877 3.1601501,0.25 6.7499989,0.25 10.339851,0.25 13.25,3.154877 13.25,6.7382224 Z"
     id="path6-6-3"
     inkscape:connector-curvature="0" />
  <path
     type="arc"
     style="fill:#00dc9e;fill-opacity:1;stroke:#000000;stroke-width:0.2;stroke-linecap:butt;stroke-miterlimit:4;stroke-dasharray:none;stroke-opacity:1"
     cx="147.14285"
     cy="518.07648"
     rx="27.142857"
     ry="27.142857"
     d="m 12.046296,6.7382224 c 0,2.919762 -2.3712312,5.2867006 -5.2962962,5.2867006 -2.925062,0 -5.296296,-2.3669386 -5.296296,-5.2867006 0,-2.9197619 2.371234,-5.2866987 5.296296,-5.2866987 2.925065,0 5.2962962,2.3669368 5.2962962,5.2866987 z"
     id="path6-6"
     inkscape:connector-curvature="0" />
  <path
     type="arc"
     style="fill:#00c88f;fill-opacity:1;stroke:#000000;stroke-width:0.2;stroke-linecap:butt;stroke-miterlimit:4;stroke-dasharray:none;stroke-opacity:1"
     cx="147.14285"
     cy="518.07648"
     rx="27.142857"
     ry="27.142857"
     d="m 10.842593,6.7382224 c 0,2.25618 -1.8323169,4.0851776 -4.092594,4.0851776 -2.260276,0 -4.092592,-1.8289966 -4.092592,-4.0851776 0,-2.2561786 1.832316,-4.0851757 4.092592,-4.0851757 2.260277,0 4.092594,1.8289971 4.092594,4.0851757 z"
     id="path6-3"
     inkscape:connector-curvature="0" />
  <path
     type="arc"
     style="fill:#00b481;fill-opacity:1;stroke:#000000;stroke-width:0.2;stroke-linecap:butt;stroke-miterlimit:4;stroke-dasharray:none;stroke-opacity:1"
     cx="147.14285"
     cy="518.07648"
     rx="27.142857"
     ry="27.142857"
     d="m 9.6388891,6.7382224 c 0,1.592599 -1.293401,2.883655 -2.88889,2.883655 -1.595488,0 -2.888888,-1.291056 -2.888888,-2.883655 0,-1.5925956 1.2934,-2.8836521 2.888888,-2.8836521 1.595489,0 2.88889,1.2910565 2.88889,2.8836521 z"
     id="path6"
     inkscape:connector-curvature="0" />
  <path
     d="m 7.0000001,6.6775654 v 9.3491716 l -0.5,-0.0014 V 6.6878154 Z"
     style="fill:#000000;stroke:none;stroke-width:0.2;stroke-miterlimit:4;stroke-dasharray:none"
     id="path4-3"
     inkscape:connector-curvature="0"
     sodipodi:nodetypes="ccccc" />
</svg>
