<?xml version="1.0" encoding="UTF-8" standalone="no"?>
<svg
   xmlns="http://www.w3.org/2000/svg"
   width="21"
   height="21"
   version="1.1">
  <path
     d="m -10,11 0,20 20,0 0,-20 z"
     style="fill:#ffffff;stroke:#000000" />
  <path
     style="fill:#ff0000;stroke:#000000;stroke-width:0.5"
     d="m -0.287077,22.905028 1.564638,0 m -1.564638,-6.525136 1.564638,0 m -1.564638,2.175046 1.564638,0 m -1.564638,2.175045 1.564638,0 M 6.3e-5,12.654903 c -0.775566,0 -1.4004254,0.626737 -1.4004254,1.404632 l 0,10.267001 c -0.6461421,0.447079 -1.0696623,1.194656 -1.0696622,2.040983 0,1.367801 1.1063824,2.477505 2.4700876,2.477506 1.363706,0 2.470088,-1.109707 2.470088,-2.477506 0,-0.846327 -0.42352,-1.593903 -1.069662,-2.040983 l 0,-10.267001 c 0,-0.777896 -0.62486,-1.404632 -1.400426,-1.404632 z" />
</svg>
