<?xml version="1.0" encoding="UTF-8" standalone="no"?>
<svg
   xmlns:dc="http://purl.org/dc/elements/1.1/"
   xmlns:cc="http://creativecommons.org/ns#"
   xmlns:rdf="http://www.w3.org/1999/02/22-rdf-syntax-ns#"
   xmlns:svg="http://www.w3.org/2000/svg"
   xmlns="http://www.w3.org/2000/svg"
   xmlns:sodipodi="http://sodipodi.sourceforge.net/DTD/sodipodi-0.dtd"
   xmlns:inkscape="http://www.inkscape.org/namespaces/inkscape"
   width="17"
   height="13"
   version="1.1"
   id="svg8"
   sodipodi:docname="toaster_on.svg"
   inkscape:version="0.92.4 5da689c313, 2019-01-14">
  <metadata
     id="metadata14">
    <rdf:RDF>
      <cc:Work
         rdf:about="">
        <dc:format>image/svg+xml</dc:format>
        <dc:type
           rdf:resource="http://purl.org/dc/dcmitype/StillImage" />
        <dc:title></dc:title>
      </cc:Work>
    </rdf:RDF>
  </metadata>
  <defs
     id="defs12" />
  <sodipodi:namedview
     pagecolor="#ffffff"
     bordercolor="#666666"
     borderopacity="1"
     objecttolerance="10"
     gridtolerance="10"
     guidetolerance="10"
     inkscape:pageopacity="0"
     inkscape:pageshadow="2"
     inkscape:window-width="960"
     inkscape:window-height="1200"
     id="namedview10"
     showgrid="false"
     fit-margin-top="0"
     fit-margin-left="0"
     fit-margin-right="0"
     fit-margin-bottom="0"
     inkscape:zoom="18.153846"
     inkscape:cx="9.0402542"
     inkscape:cy="13"
     inkscape:window-x="60"
     inkscape:window-y="0"
     inkscape:window-maximized="0"
     inkscape:current-layer="svg8" />
  <path
     d="m 14.661,10.201022 c 0,0.212883 -0.177077,0.386978 -0.393524,0.386978 H 7.9742596 c -0.216566,0 -0.570837,0 -0.787403,0 H 0.893642 C 0.676959,10.588 0.5,10.413816 0.5,10.200993 V 7.515982 c 0,-0.212648 0,-0.560899 0,-0.773664 V 2.9043564 C 0.5,2.6915913 0.600456,2.3742865 0.723391,2.1990786 0.723391,2.1990786 1.916088,0.5 7.5803816,0.5 13.245149,0.5 14.437609,2.1990786 14.437609,2.1990786 14.560426,2.3742865 14.661,2.6917857 14.661,2.9045508 V 6.742318 c 0,0.212765 0,0.561016 0,0.773664 z"
     style="fill:#ff0000"
     id="path2"
     inkscape:connector-curvature="0" />
  <rect
     style="fill:#ffffff;fill-opacity:1;stroke:none"
     width="14.450746"
     height="0.83744216"
     x="0.31160641"
     y="11.792526"
     id="rect4" />
  <path
     style="fill:#000000"
     d="M 7.59375,0 C 1.5293691,0 0.25,1.875 0.25,1.875 0.1183807,2.0675826 0,2.4223859 0,2.65625 v 4.21875 0.84375 2.9375 c 0,0.233928 0.1742623,0.4375 0.40625,0.4375 h 6.75 H 8 14.75 c 0.231736,0 0.40625,-0.203507 0.40625,-0.4375 V 7.71875 6.875 2.65625 c 0,-0.2338641 -0.08726,-0.5886674 -0.21875,-0.78125 0,0 -1.278864,-1.875 -7.34375,-1.875 z m 0,0.5 c 5.664767,0 6.84375,1.6875 6.84375,1.6875 0.122817,0.1752079 0.21875,0.5059849 0.21875,0.71875 V 6.75 7.53125 10.1875 c 0,0.212883 -0.158553,0.40625 -0.375,0.40625 H 7.96875 7.1875 0.90625 C 0.689567,10.59375 0.5,10.400323 0.5,10.1875 V 7.53125 6.75 2.90625 c 0,-0.2127651 0.095815,-0.5435421 0.21875,-0.71875 0,0 1.210706,-1.6875 6.875,-1.6875 z m 8.3125,3.3125 c -0.230539,0 -0.4375,0.202157 -0.4375,0.4375 v 0.6875 c 0,0.235343 0.206961,0.40625 0.4375,0.40625 h 0.6875 C 16.824162,5.34375 17,5.172843 17,4.9375 V 4.25 C 17,4.014657 16.824162,3.8125 16.59375,3.8125 Z m -15.5,7.65625 C 0.1743253,11.468755 0,11.672515 0,11.90625 V 12.5625 C 0,12.796299 0.1742623,13 0.40625,13 H 14.75 c 0.231736,0 0.40625,-0.203636 0.40625,-0.4375 v -0.65625 c 0,-0.233671 -0.174514,-0.437505 -0.40625,-0.4375 z m 0.5,0.5 h 13.375 c 0.216448,-2e-6 0.375,0.07542 0.375,0.15625 v 0.21875 c 0,0.0809 -0.158553,0.15625 -0.375,0.15625 H 0.90625 C 0.6895673,12.5 0.5,12.424624 0.5,12.34375 V 12.125 c 0,-0.08085 0.1896261,-0.156249 0.40625,-0.15625 z"
     id="path6"
     inkscape:connector-curvature="0" />
</svg>
