<?xml version="1.0" encoding="UTF-8" standalone="no"?>
<svg
   xmlns="http://www.w3.org/2000/svg"
   width="17"
   height="13"
   version="1.1">
  <path
     d="M 6.161,16.701022 C 6.161,16.913905 5.983923,17.088 5.767476,17.088 l -6.2932164,0 c -0.216566,0 -0.570837,0 -0.787403,0 l -6.2932146,0 C -7.823041,17.088 -8,16.913816 -8,16.700993 l 0,-2.685011 c 0,-0.212648 0,-0.560899 0,-0.773664 L -8,9.4043564 C -8,9.1915913 -7.899544,8.8742865 -7.776609,8.6990786 -7.776609,8.6990786 -6.583912,7 -0.9196184,7 4.745149,7 5.937609,8.6990786 5.937609,8.6990786 6.060426,8.8742865 6.161,9.1917857 6.161,9.4045508 l 0,3.8377672 c 0,0.212765 0,0.561016 0,0.773664 z"
     style="fill:#ff0000" />
  <rect
     style="fill:#ffffff;fill-opacity:1;stroke:none"
     width="14.450746"
     height="0.83744216"
     x="-8.1883936"
     y="18.292526" />
  <path
     style="fill:#000000"
     d="M -0.90625,6.5 C -6.9706309,6.5 -8.25,8.375 -8.25,8.375 -8.3816193,8.5675826 -8.5,8.9223859 -8.5,9.15625 l 0,4.21875 0,0.84375 0,2.9375 c 0,0.233928 0.1742623,0.4375 0.40625,0.4375 l 6.75,0 0.84375,0 6.75,0 c 0.231736,0 0.40625,-0.203507 0.40625,-0.4375 l 0,-2.9375 0,-0.84375 0,-4.21875 c 0,-0.2338641 -0.087257,-0.5886674 -0.21875,-0.78125 0,0 -1.278864,-1.875 -7.34375,-1.875 z m 0,0.5 C 4.758517,7 5.9375,8.6875 5.9375,8.6875 6.060317,8.8627079 6.15625,9.1934849 6.15625,9.40625 l 0,3.84375 0,0.78125 0,2.65625 c 0,0.212883 -0.158553,0.40625 -0.375,0.40625 l -6.3125,0 -0.78125,0 -6.28125,0 C -7.810433,17.09375 -8,16.900323 -8,16.6875 L -8,14.03125 -8,13.25 -8,9.40625 c 0,-0.2127651 0.095815,-0.5435421 0.21875,-0.71875 0,0 1.210706,-1.6875 6.875,-1.6875 z m 8.3125,3.3125 c -0.230539,0 -0.4375,0.202157 -0.4375,0.4375 l 0,0.6875 c 0,0.235343 0.206961,0.40625 0.4375,0.40625 l 0.6875,0 C 8.324162,11.84375 8.5,11.672843 8.5,11.4375 l 0,-0.6875 c 0,-0.235343 -0.175838,-0.4375 -0.40625,-0.4375 l -0.6875,0 z m -15.5,7.65625 c -0.2319247,5e-6 -0.40625,0.203765 -0.40625,0.4375 l 0,0.65625 c 0,0.233799 0.1742623,0.4375 0.40625,0.4375 L 6.25,19.5 c 0.231736,0 0.40625,-0.203636 0.40625,-0.4375 l 0,-0.65625 c 0,-0.233671 -0.174514,-0.437505 -0.40625,-0.4375 l -14.34375,0 z m 0.5,0.5 13.375,0 c 0.216448,-2e-6 0.375,0.07542 0.375,0.15625 l 0,0.21875 C 6.15625,18.92465 5.997697,19 5.78125,19 l -13.375,0 C -7.8104327,19 -8,18.924624 -8,18.84375 L -8,18.625 c 0,-0.08085 0.1896261,-0.156249 0.40625,-0.15625 z" />
</svg>
