<?xml version="1.0" encoding="UTF-8" standalone="no"?>
<svg
   xmlns:dc="http://purl.org/dc/elements/1.1/"
   xmlns:cc="http://creativecommons.org/ns#"
   xmlns:rdf="http://www.w3.org/1999/02/22-rdf-syntax-ns#"
   xmlns:svg="http://www.w3.org/2000/svg"
   xmlns="http://www.w3.org/2000/svg"
   xmlns:sodipodi="http://sodipodi.sourceforge.net/DTD/sodipodi-0.dtd"
   xmlns:inkscape="http://www.inkscape.org/namespaces/inkscape"
   width="30"
   height="21"
   version="1.1"
   id="svg6"
   sodipodi:docname="tv.svg"
   inkscape:version="0.92.4 5da689c313, 2019-01-14">
  <metadata
     id="metadata12">
    <rdf:RDF>
      <cc:Work
         rdf:about="">
        <dc:format>image/svg+xml</dc:format>
        <dc:type
           rdf:resource="http://purl.org/dc/dcmitype/StillImage" />
        <dc:title></dc:title>
      </cc:Work>
    </rdf:RDF>
  </metadata>
  <defs
     id="defs10" />
  <sodipodi:namedview
     pagecolor="#ffffff"
     bordercolor="#666666"
     borderopacity="1"
     objecttolerance="10"
     gridtolerance="10"
     guidetolerance="10"
     inkscape:pageopacity="0"
     inkscape:pageshadow="2"
     inkscape:window-width="960"
     inkscape:window-height="1200"
     id="namedview8"
     showgrid="false"
     fit-margin-top="0"
     fit-margin-left="0"
     fit-margin-right="0"
     fit-margin-bottom="0"
     inkscape:zoom="10.866667"
     inkscape:cx="16.702454"
     inkscape:cy="21"
     inkscape:window-x="60"
     inkscape:window-y="0"
     inkscape:window-maximized="0"
     inkscape:current-layer="svg6" />
  <path
     d="M 0,0.1382 V 1.5198 H 30 V 0 Z m 1.71524,1.658 H 0 V 15.88821 L 1.71524,15.888 Z M 0,17.68414 c 0,0 5.61882,0.66905 10.9644,0.9661 l -0.13482,0.5537 C 9.21512,19.48033 8.03252,19.51685 6.52461,20.03275 5.32065,20.44502 5.85202,21 5.85202,21 h 18.29604 c 0,0 0.53149,-0.55498 -0.6726,-0.96725 -1.50791,-0.5159 -2.69089,-0.55242 -4.30496,-0.82881 L 19.04334,18.68186 C 24.39043,18.40416 30,17.68414 30,17.68414 V 16.16447 H 0 Z M 28.21755,15.88821 H 30 V 1.7962 h -1.78245 v 14.09201"
     style="fill:#000000;fill-opacity:1;fill-rule:nonzero;stroke:none"
     id="path2"
     inkscape:connector-curvature="0" />
  <path
     style="fill:#ffffff;stroke:none"
     d="M 1.991,1.796 V 15.888 H 27.942 V 1.796 Z"
     id="path4"
     inkscape:connector-curvature="0" />
</svg>
