<?xml version="1.0" encoding="UTF-8" standalone="no"?>
<svg
   xmlns="http://www.w3.org/2000/svg"
   width="30"
   height="21"
   version="1.1">
  <path
     d="m -15,10.6382 0,1.3816 30,0 0,-1.5198 z m 1.71524,1.658 -1.71524,0 0,14.09201 1.71524,-2.1e-4 z M -15,28.18414 c 0,0 5.61882,0.66905 10.9644,0.9661 l -0.13482,0.5537 c -1.61446,0.27639 -2.79706,0.31291 -4.30497,0.82881 C -9.67935,30.94502 -9.14798,31.5 -9.14798,31.5 l 18.29604,0 c 0,0 0.53149,-0.55498 -0.6726,-0.96725 C 6.96755,30.01685 5.78457,29.98033 4.1705,29.70394 L 4.04334,29.18186 C 9.39043,28.90416 15,28.18414 15,28.18414 l 0,-1.51967 -30,0 z m 28.21755,-1.79593 1.78245,0 0,-14.09201 -1.78245,0 0,14.09201"
     style="fill:#000000;fill-opacity:1;fill-rule:nonzero;stroke:none" />
  <path
     style="fill:#ffffff;stroke:none"
     d="m -13.009,12.296 0,14.092 25.951,0 0,-14.092 z" />
  <rect
     style="fill:#008080;fill-opacity:1;stroke:none"
     width="5.1999998"
     height="10"
     x="-13.009"
     y="12.296" />
  <rect
     style="fill:#999999;fill-opacity:1;stroke:none"
     width="25.951"
     height="4.092"
     x="-13.009"
     y="22.296" />
  <rect
     style="fill:#008000;fill-opacity:1;stroke:none"
     width="5.1999998"
     height="10"
     x="-7.809"
     y="12.296" />
  <rect
     style="fill:#800080;fill-opacity:1;stroke:none"
     width="5.1999998"
     height="10"
     x="-2.6090002"
     y="12.296" />
  <rect
     style="fill:#aa0000;fill-opacity:1;stroke:none"
     width="5.1999998"
     height="10"
     x="2.5909996"
     y="12.296" />
  <rect
     style="fill:#000080;fill-opacity:1;stroke:none"
     width="5.1999998"
     height="10"
     x="7.7420006"
     y="12.296" />
</svg>
